<svg xmlns="http://www.w3.org/2000/svg" width="304.29" height="196.877" viewBox="0 0 304.29 196.877">
  <defs>
    <style>
      .cls-1 {
        fill: #243b53;
        font-size: 18px;
        font-family: SourceSansPro-Bold, Source Sans Pro;
        font-weight: 700;
      }

      .cls-2 {
        fill: #d9e2ec;
      }

      .cls-3, .cls-5 {
        fill: #fff;
      }

      .cls-4 {
        fill: #829ab1;
      }

      .cls-5, .cls-7 {
        stroke: #829ab1;
        stroke-width: 3px;
      }

      .cls-5 {
        stroke-linejoin: round;
      }

      .cls-6, .cls-7 {
        fill: none;
      }

      .cls-7 {
        stroke-linecap: round;
        stroke-miterlimit: 10;
        stroke-dasharray: 6 7.5;
      }

      .cls-8 {
        fill: #d0dbe7;
      }
    </style>
  </defs>
  <g id="Group_572" data-name="Group 572" transform="translate(-733.563 -446.583)">
    <text id="a-typography-primary-18" class="cls-1" transform="translate(761.563 638.459)"><tspan x="0" y="0">Oops! No patient data available</tspan></text>
    <g id="Group_9" data-name="Group 9" transform="translate(733.563 446.583)">
      <g id="Group_5" data-name="Group 5" transform="translate(0 94.097)">
        <path id="Path_18" data-name="Path 18" class="cls-2" d="M182.2,224.054a2.772,2.772,0,0,1-2.767,2.777H113.749a2.777,2.777,0,0,1,0-5.553h31.542a2.777,2.777,0,0,0,.082-5.553H119.964a2.777,2.777,0,1,1,0-5.553h53.244a2.777,2.777,0,1,1,0,5.553h-7.451a2.777,2.777,0,0,0,0,5.553h13.666A2.777,2.777,0,0,1,182.2,224.054Z" transform="translate(-91.535 -210.171)"/>
        <path id="Path_19" data-name="Path 19" class="cls-2" d="M92.96,230.673a2.772,2.772,0,0,1-2.768,2.777H82.734a2.777,2.777,0,1,1,0-5.553h7.452A2.777,2.777,0,0,1,92.96,230.673Z" transform="translate(-79.956 -216.789)"/>
      </g>
      <g id="Group_10" data-name="Group 10" transform="translate(110.507 33.609)">
        <g id="Group_6" data-name="Group 6" transform="translate(97.098 0)">
          <g id="Group_3" data-name="Group 3" transform="translate(0.936 0.404)">
            <path id="Path_2" data-name="Path 2" class="cls-3" d="M364.608,167.351c-1.929-1.034-3.093-2.7-2.6-3.72s2.455-1.008,4.384.027a5.691,5.691,0,0,1,2.32,2.9.805.805,0,0,1-.569,1.082A5.158,5.158,0,0,1,364.608,167.351Z" transform="translate(-361.564 -162.543)"/>
            <path id="Path_3" data-name="Path 3" class="cls-4" d="M368.778,167.471a1.144,1.144,0,0,1-.639.407,5.44,5.44,0,0,1-3.767-.315h0c-2.116-1.135-3.321-2.96-2.744-4.156a1.605,1.605,0,0,1,.994-.81,5.332,5.332,0,0,1,3.846.688,5.955,5.955,0,0,1,2.47,3.063,1.137,1.137,0,0,1-.16,1.123Zm-4.093-.493a4.8,4.8,0,0,0,3.3.254.482.482,0,0,0,.318-.247.457.457,0,0,0,.019-.387,5.431,5.431,0,0,0-2.17-2.728,4.752,4.752,0,0,0-3.327-.643.954.954,0,0,0-.6.468c-.364.754.538,2.253,2.46,3.283Z" transform="translate(-361.484 -162.463)"/>
          </g>
          <g id="Group_4" data-name="Group 4" transform="translate(3.284)">
            <ellipse id="Ellipse_3" data-name="Ellipse 3" class="cls-4" cx="5.354" cy="3.606" rx="5.354" ry="3.606" transform="translate(0 8.421) rotate(-51.845)"/>
          </g>
          <g id="Group_5-2" data-name="Group 5" transform="translate(0 2.905)">
            <path id="Path_4" data-name="Path 4" class="cls-3" d="M365,166.029c-2.175-.246-4.081.46-4.256,1.578s1.445,2.227,3.62,2.474a5.513,5.513,0,0,0,3.352-.932.977.977,0,0,0,.2-1.508A5.017,5.017,0,0,0,365,166.029Z" transform="translate(-360.402 -165.648)"/>
            <path id="Path_5" data-name="Path 5" class="cls-4" d="M368.159,169.044a1.313,1.313,0,0,1-.346.308,5.827,5.827,0,0,1-3.564.978,5.33,5.33,0,0,1-3.554-1.623,1.606,1.606,0,0,1-.356-1.232c.206-1.311,2.236-2.127,4.621-1.856a5.342,5.342,0,0,1,3.115,1.711,1.309,1.309,0,0,1,.084,1.713Zm-6.976-1.872a.884.884,0,0,0-.188.407.947.947,0,0,0,.229.727,4.747,4.747,0,0,0,3.1,1.365,5.179,5.179,0,0,0,3.141-.884.646.646,0,0,0,.305-.472.639.639,0,0,0-.173-.524,4.693,4.693,0,0,0-2.712-1.512h0C363.087,166.075,361.682,166.536,361.183,167.171Z" transform="translate(-360.322 -165.568)"/>
          </g>
        </g>
        <g id="Group_7" data-name="Group 7" transform="translate(0 33.304)">
          <path id="Path_6" data-name="Path 6" class="cls-5" d="M324.178,212.152v11.833H250.447l-9.052,37.723h-.008V212.152h9.16v-7.2h22.726v7.2Z" transform="translate(-240.138 -203.7)"/>
          <path id="Path_7" data-name="Path 7" class="cls-6" d="M241.01,262.574a1.256,1.256,0,0,1-1.257-1.249V211.767A1.249,1.249,0,0,1,241,210.518h7.912v-5.954a1.25,1.25,0,0,1,1.249-1.249h22.725a1.25,1.25,0,0,1,1.249,1.249v5.954h49.657a1.25,1.25,0,0,1,1.249,1.249V223.6a1.25,1.25,0,0,1-1.249,1.249H251.047l-8.822,36.766A1.249,1.249,0,0,1,241.01,262.574Zm1.241-49.557V250.8l6.6-27.491a1.25,1.25,0,0,1,1.216-.958h72.482v-9.334H272.888a1.25,1.25,0,0,1-1.249-1.249v-5.954H251.412v5.954a1.25,1.25,0,0,1-1.249,1.249Z" transform="translate(-239.753 -203.315)"/>
        </g>
        <path id="Path_20" data-name="Path 20" class="cls-7" d="M353.527,180.989A35.26,35.26,0,0,1,333.809,198.3c-3.6,1.249-7.66,1.877-11.141.34s-5.9-5.862-4.276-9.3a6.524,6.524,0,0,1,6.5-3.442,8.57,8.57,0,0,1,6.264,4.236c2.844,4.776-2,19.806-7.49,23.268-3.065,2.563-17.437,9.005-17.437,9.005l-3.018.829" transform="translate(-252.106 -165.665)"/>
        <g id="Group_8" data-name="Group 8" transform="translate(0.008 52.34)">
          <path id="Path_8" data-name="Path 8" class="cls-5" d="M333.241,229.85l-9.06,37.723H241.4l9.052-37.723Z" transform="translate(-240.148 -228.6)"/>
          <path id="Path_9" data-name="Path 9" class="cls-6" d="M323.8,268.438H241.012a1.25,1.25,0,0,1-1.215-1.54l9.052-37.725a1.25,1.25,0,0,1,1.216-.958h82.792a1.25,1.25,0,0,1,1.215,1.541l-9.06,37.725A1.25,1.25,0,0,1,323.8,268.438Zm-81.2-2.5h80.215l8.46-35.226H251.049Z" transform="translate(-239.763 -228.215)"/>
        </g>
      </g>
      <path id="Path_15" data-name="Path 15" class="cls-2" d="M267.707,137.686a3.454,3.454,0,0,1-3.284,3.463H228.956c-.059,0-.118,0-.176,0a3.463,3.463,0,0,0,.176,6.921h18.666A3.463,3.463,0,0,1,247.88,155q-.129,0-.259,0H181.271a3.463,3.463,0,0,1-.259-6.921c.086,0,.173,0,.259,0h23.373a3.463,3.463,0,0,0,0-6.921h-6.835a3.463,3.463,0,1,1,.086-6.926h66.349A3.464,3.464,0,0,1,267.707,137.686Z" transform="translate(-125.379 -134.228)"/>
      <path id="Path_16" data-name="Path 16" class="cls-8" d="M319.64,154.877a3.455,3.455,0,0,1-3.447,3.463H280.887a3.463,3.463,0,0,1-.176-6.921c.059,0,.118,0,.176,0h35.29a.566.566,0,0,1,.09,0A3.457,3.457,0,0,1,319.64,154.877Z" transform="translate(-144.798 -137.573)"/>
      <g id="Group_4-2" data-name="Group 4" transform="translate(220.502 61.231)">
        <path id="Path_17" data-name="Path 17" class="cls-2" d="M450.221,269.591a3.261,3.261,0,0,1-3.257,3.266H369.7a3.266,3.266,0,1,1,0-6.533h37.1a3.266,3.266,0,1,0,.1-6.532h-29.9a3.266,3.266,0,1,1,0-6.533h62.634a3.266,3.266,0,0,1,0,6.533h-8.766a3.266,3.266,0,0,0-.1,6.532h16.177A3.267,3.267,0,0,1,450.221,269.591Z" transform="translate(-366.434 -253.26)"/>
      </g>
    </g>
  </g>
</svg>
